<?xml version="1.0" standalone="no"?>
<!DOCTYPE svg PUBLIC "-//W3C//DTD SVG 20010904//EN"
 "http://www.w3.org/TR/2001/REC-SVG-20010904/DTD/svg10.dtd">
<svg version="1.0" xmlns="http://www.w3.org/2000/svg"
 width="1200.000000pt" height="1200.000000pt" viewBox="0 0 1200.000000 1200.000000"
 preserveAspectRatio="xMidYMid meet">
<metadata>
Created by potrace 1.11, written by Peter Selinger 2001-2013
</metadata>
<g transform="translate(0.000000,1200.000000) scale(0.100000,-0.100000)"
fill="#000000" stroke="none">
<path d="M11012 11563 c-6 -3 -9 -10 -6 -15 5 -7 2 -8 -7 -2 -21 13 -47 15
-54 5 -3 -6 -18 -6 -36 -1 -28 8 -30 7 -24 -13 5 -16 4 -18 -3 -8 -5 7 -28 15
-51 17 -32 3 -45 -1 -61 -19 -16 -16 -20 -18 -15 -4 6 13 3 16 -9 11 -9 -3
-16 -1 -16 5 0 6 -5 11 -11 11 -5 0 -8 -3 -5 -8 2 -4 -14 -7 -37 -6 -23 0 -64
-7 -92 -17 -37 -13 -52 -14 -57 -6 -6 9 -8 8 -8 -1 0 -7 -5 -10 -10 -7 -6 4
-18 1 -26 -6 -9 -7 -30 -14 -47 -15 -18 -1 -57 -10 -87 -19 -30 -9 -61 -17
-68 -19 -7 -1 -18 -8 -25 -16 -10 -12 -9 -12 6 -1 15 12 17 12 11 -3 -7 -19
-16 -20 -33 -3 -11 10 -14 10 -18 0 -3 -7 -13 -13 -23 -13 -10 0 -21 -4 -24
-9 -3 -5 -20 -8 -37 -7 -17 1 -33 -3 -35 -9 -3 -6 -14 -12 -26 -12 -12 -1 -24
-6 -27 -10 -3 -5 -13 -8 -21 -8 -8 0 -17 -2 -20 -5 -13 -14 -52 -30 -60 -25
-6 4 -10 1 -10 -5 0 -6 -5 -8 -10 -5 -6 4 -16 2 -23 -3 -7 -6 -15 -11 -19 -11
-21 -4 -37 -14 -33 -21 3 -5 -3 -6 -13 -3 -11 2 -27 -4 -37 -14 -10 -10 -23
-18 -29 -19 -6 0 -17 -2 -24 -2 -7 -1 -11 -6 -8 -10 3 -5 0 -9 -7 -10 -36 -3
-91 -23 -109 -39 -11 -10 -22 -17 -24 -15 -10 6 -53 -11 -58 -24 -3 -7 -12
-11 -20 -8 -8 3 -17 0 -21 -5 -3 -6 -11 -9 -16 -5 -14 8 -50 -26 -42 -40 4 -6
-1 -5 -10 3 -15 12 -21 9 -19 -9 0 -3 -7 -6 -16 -7 -33 -3 -51 -9 -69 -24 -17
-15 -76 -42 -87 -40 -3 0 -17 -11 -31 -25 -14 -14 -30 -22 -36 -18 -6 3 -21
-4 -34 -16 -13 -12 -28 -19 -34 -15 -6 3 -11 1 -11 -5 0 -6 -4 -9 -9 -6 -5 3
-19 -2 -32 -12 -31 -24 -58 -35 -91 -37 -17 -1 -25 2 -21 8 4 7 -1 8 -13 3
-10 -4 -15 -4 -12 0 11 11 -33 41 -72 49 -19 4 -45 17 -58 28 -18 17 -25 19
-31 8 -7 -10 -9 -9 -14 3 -4 9 -17 16 -30 16 -14 0 -29 6 -35 13 -6 7 -25 14
-43 15 -18 1 -39 8 -48 15 -12 10 -13 9 -6 -3 7 -12 3 -11 -18 3 -31 20 -41
22 -31 5 5 -8 1 -7 -10 2 -10 8 -25 15 -34 17 -18 2 -126 15 -152 17 -9 1 -21
5 -28 10 -7 4 -15 1 -18 -9 -5 -12 -9 -13 -14 -5 -4 6 -13 12 -21 13 -8 2 -20
7 -28 11 -9 6 -12 5 -8 -1 4 -6 -12 -10 -43 -10 -27 1 -48 5 -47 11 2 11 -64
23 -112 21 -17 -1 -28 2 -25 6 2 4 -4 8 -13 7 -10 0 -47 3 -83 6 -45 4 -66 2
-72 -7 -6 -9 -8 -9 -8 1 0 9 -12 13 -37 11 -21 -1 -46 2 -57 6 -11 5 -21 3
-26 -5 -5 -8 -10 -9 -14 -2 -4 6 -13 9 -21 6 -7 -3 -29 -6 -47 -7 -21 -2 -32
-7 -30 -15 1 -8 -2 -11 -8 -7 -6 3 -8 11 -5 16 10 15 -26 23 -46 10 -11 -6
-19 -8 -19 -3 0 4 -11 9 -26 10 -14 1 -23 -2 -19 -7 3 -6 -8 -6 -27 0 -59 18
-71 19 -87 6 -11 -9 -13 -9 -8 0 4 6 3 14 -3 18 -5 3 -10 1 -10 -6 0 -8 -5 -7
-17 2 -13 11 -15 11 -9 1 7 -11 4 -11 -13 0 -18 11 -23 11 -30 -1 -7 -11 -9
-11 -14 0 -5 12 -7 12 -15 0 -8 -11 -10 -11 -14 0 -4 11 -11 12 -36 2 -21 -7
-32 -8 -32 -1 0 6 -7 7 -15 4 -8 -3 -22 -9 -32 -13 -9 -3 -14 -2 -11 3 4 5 -5
10 -18 10 -13 1 -22 -1 -20 -5 3 -4 -4 -7 -14 -7 -10 0 -17 3 -14 7 2 4 -28 6
-68 3 -94 -5 -83 -5 -156 -2 -35 2 -66 -1 -70 -6 -3 -5 0 -6 6 -2 8 5 10 1 5
-9 -3 -9 -9 -13 -12 -8 -11 17 -41 23 -41 8 0 -7 -5 -17 -12 -21 -6 -4 -8 -3
-5 2 3 6 1 16 -4 24 -8 13 -12 12 -24 -4 -8 -11 -15 -14 -15 -8 0 19 -20 14
-21 -5 0 -15 -2 -15 -7 -3 -7 16 -62 24 -62 9 0 -5 -7 -5 -17 -2 -12 5 -14 3
-8 -7 6 -10 4 -11 -6 -4 -16 10 -92 12 -99 2 -3 -3 -14 -8 -25 -10 -11 -1 -25
-11 -31 -22 -8 -13 -13 -15 -18 -7 -4 6 -2 11 4 11 6 0 8 4 5 10 -4 6 -11 5
-20 -3 -7 -6 -10 -17 -6 -22 3 -6 -1 -3 -10 7 -9 9 -19 14 -23 11 -3 -4 -19
-7 -34 -8 -25 -2 -54 -11 -76 -23 -5 -3 -6 0 -2 6 4 7 -3 9 -21 5 -16 -3 -46
-6 -68 -7 -22 0 -43 -5 -46 -9 -3 -4 -27 -8 -53 -9 -26 0 -53 -6 -60 -13 -8
-8 -37 -13 -74 -13 -34 1 -67 -4 -74 -9 -20 -16 -68 -22 -68 -9 -1 6 -7 0 -15
-14 -8 -14 -14 -20 -15 -13 0 7 -17 10 -51 8 -52 -4 -83 -20 -73 -37 4 -6 -1
-6 -13 1 -14 7 -24 7 -33 -2 -10 -9 -11 -9 -6 1 9 16 -4 15 -29 -1 -11 -7 -30
-12 -42 -11 -13 1 -23 -3 -23 -8 0 -6 -7 -7 -16 -4 -10 4 -13 2 -8 -6 5 -7 -1
-9 -20 -6 -14 3 -26 2 -26 -2 0 -4 -8 -7 -17 -7 -42 0 -46 -2 -34 -17 10 -11
9 -14 -1 -12 -7 1 -19 5 -26 10 -7 4 -11 4 -10 -1 2 -4 1 -8 -2 -8 -3 0 -17
-8 -32 -17 -18 -12 -28 -14 -36 -6 -8 8 -15 8 -26 -1 -8 -7 -20 -10 -25 -7 -5
4 -13 1 -17 -5 -4 -8 -3 -9 4 -5 7 4 12 3 12 -3 0 -5 -18 -9 -39 -8 -39 1 -87
-26 -76 -44 3 -4 1 -11 -5 -14 -6 -4 -9 -1 -8 6 2 7 -8 13 -24 14 -17 1 -25
-2 -21 -10 2 -8 -6 -12 -22 -12 -29 0 -67 -30 -59 -47 3 -6 -1 -3 -9 7 -10 12
-17 14 -22 8 -3 -6 -15 -11 -26 -11 -11 0 -19 -7 -20 -17 -1 -12 -4 -10 -9 7
-6 18 -8 20 -9 7 -1 -10 -5 -16 -10 -13 -13 8 -63 -12 -57 -22 3 -5 -1 -9 -9
-9 -8 0 -15 4 -15 8 0 5 -7 6 -16 2 -8 -3 -13 -12 -9 -21 4 -12 3 -13 -10 -2
-9 7 -15 8 -15 2 0 -10 -68 -38 -82 -34 -5 1 -8 -6 -8 -16 0 -12 -2 -14 -8 -4
-10 14 -37 7 -66 -17 -12 -10 -16 -11 -12 -3 6 11 4 11 -10 3 -21 -11 -51 -21
-60 -20 -4 0 -10 -5 -14 -11 -4 -7 -25 -14 -46 -17 -22 -3 -42 -11 -46 -18 -5
-8 -17 -11 -30 -7 -17 4 -20 2 -15 -12 4 -9 3 -14 -2 -11 -5 3 -12 1 -16 -5
-4 -6 -11 -8 -16 -4 -5 3 -17 0 -26 -8 -14 -11 -16 -11 -9 2 4 9 1 8 -7 -2
-16 -21 -32 -24 -21 -5 4 6 -2 4 -13 -6 -11 -9 -22 -14 -26 -11 -3 3 -16 -1
-29 -10 -12 -9 -30 -16 -40 -16 -10 0 -18 -7 -18 -17 0 -14 -2 -15 -9 -4 -7
11 -11 10 -20 -5 -6 -11 -11 -15 -11 -10 0 5 -7 3 -16 -5 -9 -7 -18 -9 -22 -3
-8 11 -30 17 -56 16 -13 -1 -17 4 -13 19 4 13 0 19 -13 19 -21 0 -43 23 -32
35 4 5 1 5 -6 1 -6 -4 -12 -2 -12 4 0 6 -4 9 -9 6 -5 -3 -12 1 -15 10 -4 9
-13 14 -22 10 -8 -3 -13 -2 -10 2 3 4 -4 14 -16 21 -11 7 -17 8 -14 2 4 -7 1
-8 -8 -5 -9 3 -13 10 -10 15 3 5 -3 12 -13 16 -10 4 -26 16 -36 28 -10 11 -15
13 -11 5 7 -13 6 -13 -10 -1 -9 8 -15 20 -12 28 4 9 2 11 -7 6 -6 -4 -18 -8
-25 -9 -11 -2 -11 0 0 14 11 13 11 15 -4 10 -10 -4 -19 -1 -22 8 -3 8 -11 14
-17 14 -7 0 -17 6 -23 14 -6 8 -20 16 -31 18 -11 2 -27 11 -36 20 -9 10 -19
15 -23 11 -3 -3 -6 -1 -6 5 0 7 -7 12 -16 12 -8 0 -22 7 -31 15 -8 9 -20 14
-26 12 -14 -4 -48 24 -41 35 3 4 -2 5 -10 2 -11 -4 -16 0 -16 10 0 14 -4 15
-22 5 -19 -9 -21 -9 -11 2 19 19 16 27 -9 25 -13 0 -22 4 -21 10 1 6 -8 9 -21
7 -13 -3 -27 0 -30 6 -4 6 -1 11 6 11 7 0 2 7 -10 16 -13 9 -29 13 -37 10 -10
-3 -15 1 -15 12 0 13 -2 14 -9 4 -7 -11 -9 -11 -14 2 -4 9 -11 16 -17 16 -6 0
-8 -4 -5 -10 3 -6 -1 -7 -9 -4 -9 3 -16 10 -16 16 0 5 -4 6 -10 3 -5 -3 -10
-2 -10 2 0 9 -59 37 -72 35 -4 -1 -9 6 -12 16 -3 10 -14 18 -24 19 -35 3 -47
8 -60 28 -11 16 -12 16 -8 2 5 -15 2 -16 -14 -7 -11 6 -20 8 -20 4 0 -3 -7 -1
-15 6 -8 7 -15 9 -15 5 0 -4 -7 -2 -15 5 -8 7 -15 9 -15 4 0 -5 -4 -3 -9 4 -4
7 -17 14 -28 15 -12 0 -19 6 -16 13 3 8 -2 11 -16 7 -12 -3 -21 -1 -21 6 0 6
-5 11 -11 11 -6 0 -9 -7 -5 -15 9 -24 -13 -17 -25 8 -10 22 -59 37 -59 17 0
-5 -7 -6 -17 -3 -12 5 -14 3 -8 -7 5 -9 4 -11 -3 -6 -7 4 -12 2 -12 -5 0 -7
-3 -9 -7 -6 -3 4 2 17 13 29 10 12 13 18 7 14 -8 -4 -13 -2 -13 6 0 9 -3 9 -8
2 -8 -12 -73 -13 -65 -2 2 5 -2 8 -11 8 -8 0 -17 -6 -19 -12 -4 -8 -6 -7 -6 3
-1 18 -33 30 -66 25 -11 -2 -38 3 -59 11 -22 7 -41 11 -44 8 -3 -3 -15 1 -28
9 -12 8 -44 17 -70 20 -60 7 -142 24 -155 31 -5 4 -9 1 -9 -4 0 -6 -8 -11 -17
-11 -18 1 -55 23 -50 31 1 3 -6 -4 -17 -16 l-19 -20 8 24 c5 15 4 21 -3 17 -6
-3 -12 -1 -14 5 -3 8 -10 6 -21 -5 -10 -10 -17 -13 -17 -6 0 8 -14 10 -40 7
-22 -2 -43 0 -47 6 -4 6 -1 7 8 2 12 -7 12 -6 1 6 -11 12 -15 11 -28 -5 -12
-17 -14 -17 -14 -4 0 9 -8 17 -18 17 -53 2 -72 6 -72 14 0 5 -12 6 -26 3 -19
-5 -24 -4 -19 6 4 7 -1 4 -10 -7 -16 -20 -16 -20 -13 0 4 23 -30 34 -43 13 -8
-11 -10 -11 -18 1 -6 9 -11 10 -15 2 -4 -6 -12 -11 -17 -11 -6 0 -8 4 -5 8 2
4 -6 8 -20 8 -16 0 -23 -5 -20 -13 3 -7 0 -15 -6 -19 -6 -4 -8 -3 -4 4 12 20
-22 42 -49 32 -13 -5 -27 -6 -29 -1 -7 10 -56 2 -75 -13 -11 -8 -13 -8 -7 2 4
6 2 12 -3 12 -6 0 -11 -4 -11 -10 0 -5 -10 -10 -22 -10 -13 0 -36 -7 -52 -15
-15 -8 -36 -15 -46 -15 -20 0 -46 -26 -31 -32 5 -1 2 -10 -7 -18 -14 -13 -15
-12 -9 3 10 26 -36 15 -81 -20 -21 -15 -41 -27 -45 -25 -4 1 -7 -5 -5 -14 2
-9 -4 -19 -12 -21 -13 -4 -13 -3 0 6 8 6 10 11 4 11 -5 0 -15 -5 -22 -12 -7
-7 -12 -8 -12 -3 0 6 -6 -1 -13 -15 -8 -14 -19 -24 -25 -22 -7 1 -12 -5 -12
-13 0 -8 -5 -15 -11 -15 -12 0 -63 -50 -62 -60 0 -3 -4 -16 -10 -30 -6 -14
-10 -28 -9 -32 1 -5 -3 -8 -10 -8 -6 0 -8 -3 -5 -7 4 -3 2 -12 -4 -19 -6 -8
-13 -31 -16 -51 -3 -21 -9 -39 -13 -41 -7 -3 -4 -55 4 -79 3 -6 0 -13 -7 -16
-7 -2 -12 -26 -12 -64 0 -37 -4 -59 -10 -56 -5 2 -1 -3 9 -11 19 -15 19 -16 0
-38 -10 -12 -14 -18 -7 -15 6 4 14 3 18 -3 3 -5 2 -10 -3 -10 -4 0 -9 -36 -9
-80 0 -48 4 -80 10 -80 6 0 8 -3 4 -6 -3 -3 -2 -17 3 -30 8 -19 6 -22 -8 -18
-15 5 -15 4 1 -9 10 -8 28 -13 40 -11 13 3 16 1 7 -2 -29 -14 -43 -35 -31 -47
6 -6 11 -16 11 -22 0 -5 -5 -3 -10 5 -8 12 -9 11 -7 -5 2 -11 7 -27 10 -35 3
-8 8 -31 10 -51 2 -19 9 -45 15 -56 6 -11 9 -23 5 -26 -3 -3 -2 -14 2 -24 5
-10 7 -22 6 -27 -1 -4 6 -14 16 -22 10 -7 13 -14 7 -14 -13 0 23 -143 37 -148
5 -2 9 -19 9 -37 0 -35 25 -56 33 -27 4 15 5 15 6 -1 1 -12 6 -16 13 -11 8 4
10 3 5 -2 -5 -5 -14 -9 -20 -9 -7 0 -13 -10 -15 -22 -2 -13 2 -23 8 -23 6 0 9
-4 6 -9 -3 -4 4 -17 15 -27 14 -12 19 -28 17 -50 -1 -17 4 -40 12 -49 8 -10
14 -19 12 -19 -8 -2 11 -56 19 -56 5 0 9 -7 9 -15 0 -9 6 -18 13 -21 8 -3 14
-11 14 -19 0 -8 -4 -12 -9 -9 -12 8 2 -46 19 -72 7 -11 11 -23 8 -26 -3 -3 1
-18 9 -33 8 -16 13 -32 10 -37 -3 -4 0 -8 5 -8 6 0 10 -3 9 -7 -4 -17 14 -73
22 -68 5 3 7 -3 6 -12 -2 -10 0 -27 5 -38 18 -48 22 -60 21 -67 -1 -4 4 -5 12
-2 17 6 41 -22 26 -31 -6 -4 -9 -2 -8 3 2 6 -1 9 -7 9 -12 -2 -7 -31 6 -35 5
-2 7 -8 3 -13 -3 -5 3 -9 13 -9 14 0 15 -2 4 -9 -11 -7 -10 -13 3 -33 9 -14
13 -27 10 -31 -4 -3 -3 -14 1 -24 5 -10 9 -21 10 -25 2 -5 3 -9 5 -10 1 -2 3
-11 5 -20 9 -45 39 -108 53 -108 12 0 12 -3 2 -15 -9 -11 -9 -15 -1 -15 7 0
10 -4 6 -9 -3 -5 -1 -12 5 -16 6 -4 7 -11 4 -17 -4 -7 -2 -8 4 -4 7 4 12 4 13
-1 0 -4 2 -17 4 -28 2 -11 6 -36 8 -55 3 -19 13 -50 23 -69 12 -25 14 -36 6
-39 -7 -2 -12 -10 -12 -18 0 -8 -7 -17 -15 -20 -8 -4 -13 -10 -10 -14 3 -4 -2
-13 -10 -20 -9 -7 -13 -22 -10 -34 3 -12 2 -15 -1 -8 -4 8 -17 -4 -38 -35 -17
-27 -43 -65 -58 -84 -16 -20 -28 -40 -28 -44 0 -5 -6 -16 -14 -24 -26 -30 -57
-94 -52 -107 3 -8 1 -13 -3 -11 -5 1 -8 0 -8 -3 1 -3 -8 -20 -21 -37 -13 -18
-25 -42 -27 -53 -2 -11 -13 -34 -25 -50 -12 -16 -18 -34 -15 -40 3 -5 3 -10
-2 -10 -7 0 -35 -51 -39 -72 -1 -5 -3 -11 -4 -15 -1 -5 -2 -11 -1 -15 0 -5 -4
-8 -10 -8 -5 0 -8 -3 -6 -7 3 -5 -7 -34 -23 -65 -23 -49 -24 -58 -11 -59 13 0
14 -2 1 -6 -23 -9 -40 -30 -40 -48 0 -9 -10 -35 -21 -58 -12 -23 -21 -43 -21
-44 1 -2 0 -8 -2 -15 -3 -7 -7 -26 -10 -41 -4 -17 -11 -25 -18 -21 -8 5 -9 2
-5 -9 4 -10 2 -17 -4 -17 -6 0 -9 -9 -6 -20 3 -11 2 -18 -2 -16 -13 8 -52
-112 -55 -166 0 -16 -5 -28 -9 -28 -5 0 -5 -4 -2 -10 3 -5 2 -10 -3 -10 -11 0
-27 -47 -23 -67 1 -7 -4 -13 -11 -13 -10 0 -10 -2 0 -9 11 -7 10 -9 -3 -15 -9
-3 -14 -10 -10 -15 3 -5 1 -13 -5 -16 -8 -5 -7 -11 1 -21 10 -12 10 -15 -2
-12 -10 2 -13 -4 -11 -21 2 -13 0 -21 -5 -18 -5 3 -9 -2 -9 -11 0 -9 -4 -28
-8 -41 -5 -14 -4 -21 1 -18 5 4 10 0 10 -7 0 -9 -7 -12 -15 -8 -11 4 -14 1 -9
-12 4 -10 1 -19 -9 -23 -8 -3 -13 -11 -10 -18 2 -7 -2 -25 -10 -40 -17 -34
-18 -38 -1 -29 6 4 4 -2 -7 -14 -10 -11 -16 -27 -14 -34 3 -7 -3 -27 -13 -45
-10 -17 -21 -51 -24 -75 -8 -49 -13 -73 -15 -73 -1 0 -3 -13 -4 -30 -2 -16 -6
-41 -10 -55 -3 -14 -9 -54 -12 -90 -6 -64 -9 -85 -18 -145 -2 -16 1 -36 6 -42
7 -9 7 -13 -2 -13 -7 0 -10 -6 -7 -14 3 -8 1 -17 -6 -19 -9 -3 -8 -8 2 -21 12
-15 12 -17 0 -14 -9 2 -15 -6 -15 -22 -2 -24 -26 -155 -43 -232 -5 -21 -5 -38
-1 -38 4 0 10 -9 13 -20 3 -11 2 -18 -3 -15 -15 9 -18 -35 -3 -50 8 -8 11 -15
6 -15 -4 0 -9 -11 -9 -25 -1 -14 2 -25 7 -25 6 0 5 -8 -1 -19 -5 -11 -8 -35
-6 -53 2 -18 0 -43 -5 -55 -5 -13 -5 -23 0 -23 5 0 5 -18 1 -40 -4 -22 -4 -40
-1 -40 3 0 5 -30 3 -66 -2 -36 1 -64 5 -61 10 6 8 -97 -2 -113 -4 -6 -1 -18 7
-27 9 -12 9 -15 1 -9 -16 9 -17 -6 -1 -22 7 -7 8 -12 2 -12 -12 0 -11 -346 1
-374 6 -14 5 -17 -3 -12 -7 4 -12 2 -12 -3 0 -6 5 -11 11 -11 5 0 7 -5 3 -12
-10 -16 -5 -153 6 -153 3 0 10 -174 12 -327 2 -86 6 -154 10 -152 4 2 5 -8 4
-23 -2 -16 -1 -32 2 -38 10 -16 8 -49 -3 -57 -6 -4 -2 -8 8 -8 9 0 17 -5 17
-11 0 -5 -4 -8 -9 -4 -6 3 -9 -10 -8 -32 2 -20 8 -38 15 -41 8 -2 8 -8 0 -22
-8 -12 -9 -23 -2 -32 6 -7 10 -34 9 -60 0 -25 4 -44 9 -40 5 3 7 -2 3 -11 -3
-10 -2 -17 2 -17 5 0 8 -12 6 -28 -2 -15 1 -32 7 -39 5 -7 7 -16 4 -21 -3 -6
0 -15 8 -21 7 -6 11 -22 8 -36 -2 -14 0 -25 5 -25 5 0 10 -15 10 -32 1 -45 5
-61 23 -76 8 -8 9 -11 3 -7 -7 3 -13 1 -13 -4 0 -6 4 -11 10 -11 5 0 7 -7 4
-15 -4 -8 -1 -15 6 -15 7 0 10 -6 7 -14 -3 -7 0 -19 6 -25 6 -6 8 -11 4 -11
-4 0 -3 -9 3 -20 6 -12 17 -17 28 -14 10 4 13 2 7 -3 -18 -15 -16 -39 6 -62
11 -12 18 -29 15 -37 -3 -8 -2 -12 3 -9 8 4 24 -25 26 -47 0 -3 4 -10 9 -15 5
-5 6 -2 1 6 -5 9 -4 12 3 7 6 -3 9 -15 7 -26 -2 -11 2 -32 10 -47 8 -15 11
-31 8 -36 -3 -6 -1 -7 4 -4 6 4 13 -6 17 -24 3 -17 10 -28 15 -25 5 3 7 -4 4
-15 -5 -19 -3 -21 21 -17 18 4 24 2 18 -4 -11 -11 31 -58 50 -58 5 0 7 -4 4
-8 -6 -11 52 -72 68 -72 7 0 18 6 26 13 12 10 12 9 1 -5 -11 -15 -9 -18 13
-24 15 -3 23 -11 19 -17 -4 -6 0 -8 10 -4 9 3 19 1 23 -5 5 -7 2 -8 -7 -3 -8
4 -5 -1 6 -12 11 -11 30 -19 42 -17 14 1 23 -3 23 -12 0 -19 15 -18 36 4 17
16 18 16 11 0 -5 -13 -1 -18 13 -18 12 0 20 -7 20 -17 0 -15 2 -16 10 -3 5 8
10 11 10 5 1 -5 8 4 16 20 8 17 12 22 10 13 -6 -20 17 -30 34 -15 7 7 10 8 8
2 -7 -12 17 -37 26 -28 3 4 6 1 6 -6 0 -8 13 -12 38 -10 21 2 44 -1 51 -6 10
-5 12 -4 7 4 -5 8 0 10 20 7 15 -3 31 -11 36 -18 5 -8 8 -9 8 -2 0 14 48 25
56 12 3 -4 9 -6 14 -3 5 3 19 1 30 -5 14 -8 20 -8 20 0 0 6 4 8 10 5 5 -3 10
0 11 7 0 7 4 4 9 -7 5 -11 9 -14 9 -7 1 14 92 13 103 -2 4 -6 13 -4 22 3 11
10 16 10 16 2 0 -7 11 -10 28 -8 15 2 35 0 44 -4 10 -6 19 -5 23 1 4 7 12 7
18 2 15 -10 27 -10 46 2 9 6 12 5 8 0 -6 -11 73 -11 91 0 7 4 18 4 24 -1 19
-11 40 -10 71 5 19 9 27 9 27 1 0 -8 5 -7 17 2 13 11 17 11 21 1 3 -10 7 -10
20 0 13 11 14 11 7 -1 -6 -11 -3 -11 14 2 13 8 30 13 37 10 8 -3 14 1 14 8 0
12 2 12 9 0 6 -10 13 -11 29 -2 28 15 55 14 47 -1 -4 -7 2 -3 13 9 14 16 22
19 30 11 17 -17 109 -13 127 6 22 21 31 21 14 -1 -13 -15 -11 -16 18 -10 22 4
37 2 48 -9 8 -8 19 -12 25 -9 5 3 10 1 10 -4 0 -6 7 -11 16 -11 8 0 12 4 9 10
-3 5 10 3 29 -5 27 -11 36 -12 39 -2 4 9 6 9 6 0 1 -8 10 -9 29 -4 15 4 33 6
40 4 7 -3 19 0 27 7 9 7 20 8 32 3 10 -5 30 -9 45 -8 16 0 28 -3 28 -7 0 -5 9
-4 21 3 12 6 30 9 40 6 10 -3 19 -1 19 3 0 8 7 8 45 0 32 -7 46 1 39 22 -6 21
-6 21 10 5 10 -9 22 -15 27 -12 13 9 11 -9 -3 -24 -7 -8 -1 -6 15 4 26 16 28
16 53 0 15 -9 23 -11 19 -5 -6 10 -1 12 18 8 14 -3 26 -2 25 1 -3 26 3 31 18
16 14 -13 19 -14 25 -3 5 8 9 9 9 2 0 -10 18 -14 72 -15 10 0 20 -4 23 -9 9
-15 34 0 28 16 -4 11 -9 12 -18 4 -10 -8 -15 -8 -21 1 -4 7 -3 9 4 5 6 -3 14
-2 17 4 5 8 11 8 19 1 7 -6 17 -7 21 -3 5 4 5 1 1 -6 -4 -6 -2 -12 4 -12 6 0
8 -6 5 -13 -4 -6 1 -3 9 7 9 11 16 15 16 10 0 -11 39 -13 55 -3 14 9 76 -1 70
-11 -6 -10 66 -8 82 3 15 9 45 -2 37 -15 -3 -5 7 -3 24 6 17 9 32 21 35 28 4
9 6 7 6 -3 1 -9 8 -20 17 -23 10 -4 13 -2 8 7 -6 9 -4 9 7 2 8 -6 28 -12 44
-14 17 -2 38 -8 49 -13 14 -8 17 -7 11 3 -6 9 -3 11 8 6 9 -3 19 -1 23 5 5 7
11 5 20 -6 11 -16 13 -16 23 1 9 16 11 16 11 -7 1 -14 4 -20 6 -13 3 7 12 9
21 6 12 -5 14 -3 8 7 -6 10 -4 12 9 7 10 -4 22 -7 27 -7 6 0 7 -5 3 -12 -4 -7
-3 -8 5 -4 6 4 9 11 6 16 -3 5 -1 11 4 14 11 7 22 -34 13 -48 -10 -17 -11 -36
-2 -36 11 0 6 -40 -8 -67 -17 -30 -15 -46 4 -39 11 4 10 -1 -6 -21 -12 -15
-16 -29 -11 -32 13 -9 22 -59 11 -66 -5 -3 -9 -13 -8 -23 0 -9 -3 -30 -6 -45
-4 -19 -3 -26 4 -22 14 8 13 -38 -1 -52 -8 -8 -8 -13 0 -17 7 -5 8 -13 2 -24
-5 -10 -8 -34 -7 -54 0 -20 -2 -34 -5 -32 -4 2 -6 -14 -4 -36 1 -22 0 -40 -4
-40 -9 0 -7 -73 2 -87 5 -7 4 -13 -1 -13 -9 0 -13 -35 -15 -142 -1 -32 -4 -58
-7 -58 -3 0 -6 -15 -7 -32 -2 -53 -12 -151 -18 -178 -3 -14 -7 -36 -9 -50 -6
-53 -19 -105 -28 -111 -5 -3 -10 -20 -11 -37 -1 -18 -5 -32 -8 -32 -18 0 -33
-144 -19 -180 1 -3 3 -16 4 -30 2 -37 26 -100 38 -100 6 0 8 -9 5 -21 -4 -15
-2 -19 9 -15 8 3 12 1 9 -4 -3 -5 3 -18 15 -30 21 -21 27 -35 10 -25 -15 9
-12 0 9 -23 10 -12 22 -18 26 -14 5 4 5 -1 2 -10 -3 -10 4 -26 18 -42 12 -13
22 -26 21 -28 -2 -2 6 -11 16 -21 10 -9 18 -12 18 -6 0 5 5 7 10 4 6 -4 8 -11
4 -16 -3 -5 -2 -8 3 -7 4 1 18 -3 30 -10 17 -9 22 -9 26 1 4 9 6 9 6 0 1 -7 8
-13 17 -13 8 0 12 -5 8 -11 -4 -8 0 -8 15 0 14 8 21 8 21 1 0 -5 7 -10 16 -10
9 0 23 -8 30 -17 7 -10 14 -13 14 -6 0 8 10 9 38 1 20 -6 44 -11 52 -12 71 -9
109 -20 103 -30 -4 -6 1 -5 10 3 9 7 17 11 17 7 0 -3 11 -1 25 4 18 7 25 6 25
-3 0 -6 5 -4 11 6 5 9 15 17 22 17 8 0 7 -3 -2 -9 -11 -7 -8 -10 9 -16 17 -5
27 -2 38 11 11 14 13 14 9 3 -3 -9 0 -16 9 -16 7 0 11 5 8 11 -3 6 0 4 8 -4
17 -20 88 -22 88 -2 0 12 3 12 23 -1 17 -11 47 -15 113 -13 49 1 97 -3 107 -8
13 -8 20 -7 27 4 8 12 10 12 10 1 0 -11 5 -9 22 5 l22 19 -18 -29 -19 -29 29
20 c27 19 60 21 50 4 -3 -4 1 -8 8 -8 8 0 12 6 9 14 -3 7 0 13 6 13 6 0 11 -5
11 -11 0 -5 4 -8 9 -5 5 4 12 0 14 -6 4 -10 6 -10 6 0 1 7 5 10 11 7 5 -3 10
-1 10 4 0 15 27 14 32 -1 3 -7 21 -14 41 -14 20 -1 34 2 32 6 -3 4 2 10 10 14
8 3 15 1 15 -5 0 -6 5 -7 10 -4 6 4 8 10 6 14 -3 4 1 8 8 8 7 0 13 -7 12 -16
-1 -10 5 -14 14 -12 8 2 44 5 80 7 75 4 94 10 85 24 -3 6 1 7 9 4 9 -3 14 -9
12 -13 -2 -3 7 -7 20 -7 13 -1 21 2 18 7 -8 13 28 -1 49 -20 23 -19 44 -22 50
-6 4 8 18 10 49 6 59 -9 73 -7 70 8 -1 7 2 9 8 6 6 -4 9 -14 5 -22 -4 -13 -3
-14 10 -3 13 11 18 10 30 -6 15 -18 15 -18 8 1 -6 18 -5 18 10 6 9 -7 17 -9
17 -3 0 5 11 12 25 14 13 3 22 2 20 -2 -3 -5 2 -11 11 -14 10 -4 13 -2 8 6 -5
7 -2 9 9 5 9 -3 39 0 66 7 28 7 48 9 45 4 -3 -4 0 -8 6 -8 6 0 9 -4 6 -9 -3
-4 18 -8 47 -7 37 1 51 5 49 14 -1 8 2 11 10 6 6 -4 26 -9 44 -10 18 -1 37 -5
43 -8 6 -4 9 -1 5 7 -5 15 21 17 46 3 12 -7 13 -6 3 5 -13 13 -19 38 -6 26 3
-4 12 -2 20 4 10 9 18 8 31 -5 22 -19 36 -21 26 -3 -4 6 1 4 12 -5 14 -13 23
-14 38 -6 14 8 21 7 27 -3 5 -8 9 -9 9 -4 0 6 14 10 30 10 17 0 30 -4 30 -10
0 -6 3 -6 8 1 4 6 17 13 30 17 18 4 21 3 12 -8 -8 -10 -8 -15 1 -21 8 -4 9 -3
5 4 -4 7 -3 12 3 12 5 0 12 -6 14 -12 4 -10 6 -10 6 -1 1 7 8 10 16 7 18 -7
20 7 3 26 -7 8 -2 6 12 -5 14 -11 28 -24 32 -30 5 -6 8 -5 8 3 0 7 5 10 10 7
6 -3 10 -1 10 5 0 6 5 8 10 5 6 -4 19 -1 28 7 15 12 16 11 4 -4 -13 -16 -11
-17 17 -15 17 1 31 8 31 15 0 7 8 4 20 -8 23 -23 41 -26 38 -7 -2 6 9 13 24
15 23 3 26 0 22 -20 -5 -20 -4 -21 6 -5 13 19 45 24 35 5 -4 -7 -1 -6 7 2 14
16 71 22 61 7 -3 -5 5 -7 18 -5 17 2 23 9 21 23 -2 16 -1 17 7 5 5 -8 7 -18 5
-22 -3 -4 0 -8 5 -8 6 0 11 4 11 8 0 4 11 9 26 10 17 1 23 -2 19 -11 -4 -6 0
-4 8 6 15 18 33 24 22 8 -3 -5 -1 -12 5 -16 5 -3 10 -2 10 3 0 20 80 35 92 17
5 -6 8 -5 8 3 0 7 5 10 10 7 6 -3 10 -1 10 6 0 7 3 9 6 6 4 -4 2 -13 -4 -20
-9 -11 -5 -13 21 -11 46 2 49 3 42 14 -3 6 1 10 10 10 10 0 13 -5 9 -12 -5 -7
-3 -8 6 -3 7 4 16 2 21 -6 6 -11 12 -9 31 6 14 13 18 14 10 4 -11 -15 -9 -17
13 -15 16 0 23 6 20 13 -5 16 7 17 22 2 6 -6 38 -11 71 -12 48 -2 58 1 50 11
-8 9 -7 11 6 6 9 -3 16 -10 16 -15 0 -4 7 -6 15 -3 8 4 12 11 9 16 -4 6 4 5
16 -2 13 -7 20 -8 16 -2 -4 6 2 11 11 11 10 -1 30 2 46 5 15 4 27 2 27 -3 0
-6 -10 -8 -21 -6 -12 3 -19 1 -15 -2 12 -12 56 -11 56 1 0 6 4 5 9 -2 7 -11 9
-11 14 1 3 9 14 13 31 10 15 -3 23 -10 20 -17 -3 -6 0 -4 8 4 7 9 24 15 38 14
14 -1 30 2 35 6 11 8 12 8 120 14 44 3 80 6 80 6 0 7 67 5 71 -2 3 -5 10 -5
17 -1 6 3 25 8 41 9 17 1 45 8 61 15 17 7 32 13 35 13 25 5 69 30 64 37 -3 5
2 6 10 3 9 -3 16 -1 16 4 0 6 9 14 20 17 11 3 20 14 20 24 0 10 8 25 18 32 16
13 16 12 2 -6 -12 -17 -12 -18 0 -7 8 7 15 20 16 30 3 54 5 62 16 60 7 -2 13
4 13 12 0 8 7 20 15 27 8 6 12 15 8 18 -9 9 20 67 30 61 4 -3 9 5 9 17 1 12 7
23 13 25 5 2 10 13 10 23 0 11 4 18 9 15 11 -7 22 27 26 77 2 21 6 45 9 53 3
8 2 14 -3 14 -4 0 -6 11 -3 25 2 14 9 22 14 19 6 -4 7 2 3 16 -5 15 -4 20 4
16 7 -5 9 -1 5 8 -3 9 -11 13 -18 9 -8 -5 -8 -3 0 8 14 17 16 82 3 74 -8 -6
-13 15 -10 40 1 6 -6 1 -15 -10 -16 -20 -16 -20 -9 3 4 15 2 24 -9 28 -9 3
-13 10 -10 15 3 5 1 9 -4 9 -9 0 -12 14 -12 68 0 17 -5 32 -9 32 -5 0 -8 8 -6
18 1 9 -2 23 -8 30 -5 6 -6 12 -3 12 4 0 0 7 -9 16 -14 15 -14 17 2 31 10 8
12 12 5 8 -9 -5 -11 0 -8 19 3 14 2 26 -2 26 -4 0 -8 13 -8 30 -1 16 2 27 6
25 5 -3 12 0 16 6 4 7 3 10 -2 6 -5 -3 -18 1 -29 9 -10 8 -13 14 -7 14 16 0
15 25 -2 39 -8 7 -13 28 -12 50 2 31 -1 38 -14 33 -13 -5 -13 -4 -1 12 11 13
11 20 3 28 -15 15 -16 32 -2 23 9 -5 9 6 0 45 0 3 -7 -3 -14 -13 -12 -16 -14
-16 -20 -2 -3 9 -2 14 3 11 5 -3 11 1 15 9 3 8 1 15 -4 15 -6 0 -10 5 -10 11
0 5 6 7 13 3 10 -6 10 -4 0 7 -7 7 -13 26 -13 42 0 20 -4 26 -12 21 -9 -5 -9
-2 1 9 10 13 10 17 1 17 -10 0 -10 3 0 15 7 8 9 15 4 16 -5 0 0 4 11 9 17 7
17 9 3 9 -10 1 -25 13 -35 27 -15 23 -15 27 -1 35 10 6 14 17 10 35 -4 20 -2
25 8 19 8 -5 11 -4 6 3 -4 6 -12 9 -19 6 -9 -3 -13 6 -13 31 0 19 3 35 7 35 4
0 5 9 2 20 -3 11 0 27 6 34 10 12 8 17 -8 26 -22 11 -28 30 -10 30 5 0 7 -6 3
-12 -4 -7 -3 -9 1 -5 5 4 10 14 11 23 2 10 -3 13 -17 9 -14 -5 -19 -2 -19 12
0 15 2 16 10 3 8 -13 14 -8 12 11 -1 3 6 6 14 6 7 0 14 -6 14 -12 0 -6 7 -12
15 -12 8 0 12 4 9 9 -7 10 35 6 54 -5 8 -6 11 -4 10 4 -2 7 3 14 10 15 6 1 15
2 19 3 3 0 -2 10 -12 21 -23 25 -15 26 13 1 23 -19 30 -37 10 -25 -7 4 -8 3
-4 -5 4 -6 13 -8 19 -4 6 4 25 7 42 8 17 0 29 6 28 12 -2 7 4 10 12 7 9 -4 21
-1 29 5 10 9 15 8 19 -3 4 -10 1 -13 -9 -9 -7 3 -14 0 -14 -5 0 -10 31 -9 48
2 4 2 14 1 22 -4 8 -5 22 -4 34 3 12 6 24 10 29 9 4 -1 7 4 7 11 0 8 11 12 28
11 15 -1 33 4 41 10 11 8 13 8 8 -1 -5 -7 4 -11 28 -10 19 1 35 5 35 9 0 4 7
8 15 8 8 0 15 -6 15 -12 0 -10 2 -10 8 0 5 6 19 12 33 11 28 -1 64 7 81 17 7
5 34 7 60 6 27 0 48 3 48 8 0 15 38 12 43 -2 4 -10 6 -10 6 0 1 6 10 12 22 12
11 0 17 -4 14 -10 -9 -15 12 -12 27 4 11 11 15 11 25 -3 10 -14 11 -12 6 9 -6
23 -5 24 12 10 15 -12 17 -12 10 -1 -6 11 -4 13 8 8 10 -4 17 -1 17 6 0 8 3 8
9 -2 5 -7 11 -9 14 -4 7 11 37 11 56 -2 9 -5 12 -4 8 2 -10 15 18 24 32 10 8
-8 11 -8 11 2 0 8 7 10 21 6 14 -5 19 -3 15 3 -3 6 -2 13 4 17 5 3 10 1 10 -5
0 -6 4 -8 10 -5 5 3 18 1 29 -5 14 -7 22 -7 27 2 4 7 3 8 -4 4 -7 -4 -12 -2
-12 3 0 14 13 14 28 -1 9 -9 12 -9 12 0 0 7 12 12 26 12 20 0 25 -4 20 -17 -6
-14 -4 -14 14 2 13 12 36 19 60 19 23 0 36 4 33 9 -4 6 3 8 15 5 12 -4 25 -2
28 3 3 5 16 9 29 9 27 0 42 16 23 23 -8 4 -9 6 -2 6 6 1 17 -5 23 -13 11 -13
19 -13 59 1 40 13 94 20 175 24 11 0 15 5 10 12 -4 7 2 5 12 -3 10 -8 16 -10
12 -3 -4 6 -3 15 3 18 6 4 9 1 8 -6 -4 -18 24 -18 38 0 9 11 12 12 19 1 6 -9
4 -11 -5 -5 -9 5 -11 4 -6 -4 5 -7 12 -9 19 -3 7 4 22 7 35 6 13 -1 26 4 28
11 3 7 16 11 29 9 14 -1 27 2 31 7 3 5 14 9 24 9 10 0 25 7 34 15 8 9 19 17
23 18 4 1 7 8 7 15 -2 10 1 10 12 1 12 -9 19 -8 37 8 12 10 29 19 37 18 8 0
21 6 29 13 8 8 24 11 40 7 16 -3 21 -2 13 3 -9 6 -6 12 11 21 13 7 27 11 33
10 27 -5 55 2 48 13 -5 8 -2 9 9 5 10 -3 17 -2 17 4 0 6 8 9 18 7 9 -2 26 4
36 14 10 9 23 15 28 12 5 -3 18 2 28 11 11 10 28 15 40 12 12 -3 20 0 20 8 0
13 28 30 43 26 5 -1 6 3 3 8 -4 5 -2 12 3 15 5 4 12 2 16 -4 4 -7 12 -7 24 0
10 5 21 6 25 3 3 -3 6 -1 6 6 0 7 5 9 10 6 6 -3 10 -1 10 5 0 6 6 10 13 9 27
-3 38 1 31 14 -6 9 -4 9 8 -1 14 -11 19 -10 35 6 10 11 26 18 35 17 9 -2 19 4
22 12 3 8 11 11 16 8 6 -4 9 -1 8 7 -2 7 3 12 10 10 6 -1 12 3 12 9 0 6 16 27
35 47 19 20 35 42 35 48 0 6 7 17 15 24 9 7 13 15 10 18 -3 3 3 14 12 25 17
20 17 20 -1 13 -16 -5 -17 -4 -6 9 7 8 16 13 20 10 9 -5 23 33 20 54 -1 7 3
11 7 8 5 -3 14 7 20 24 9 22 8 28 0 23 -7 -4 -1 3 11 16 32 30 13 53 -20 24
l-23 -19 19 23 c11 12 15 22 11 22 -5 0 -4 5 2 11 8 8 17 8 32 0 12 -7 21 -8
21 -2 0 5 -6 12 -12 14 -10 4 -9 6 1 6 11 1 11 4 0 18 -12 15 -12 16 4 10 10
-4 16 -3 13 1 -3 5 1 20 9 35 8 15 9 27 4 27 -6 0 -5 8 1 21 7 11 9 32 6 45
-5 18 -3 22 9 18 19 -8 19 0 -1 20 -14 15 -14 16 2 16 14 0 15 3 6 12 -7 7
-12 17 -12 22 0 6 5 4 11 -4 9 -13 10 -12 5 2 -3 10 -9 25 -13 35 -4 11 -3 14
5 9 7 -4 12 -2 12 4 0 6 5 8 12 4 7 -4 8 -3 4 4 -4 7 -15 12 -24 13 -10 1 -8
4 7 8 14 4 25 15 27 28 3 15 0 21 -10 17 -10 -4 -13 5 -12 33 1 26 5 37 14 35
9 -2 11 2 5 10 -4 7 -6 22 -4 32 2 13 -2 17 -11 13 -17 -6 -21 21 -6 40 6 7 5
19 -2 32 -9 18 -8 20 7 15 10 -3 2 4 -17 15 -26 15 -30 20 -15 21 15 0 16 3 7
12 -15 15 -16 48 -2 48 6 0 13 -7 16 -15 4 -8 10 -15 14 -15 5 0 3 13 -3 30
-6 16 -15 30 -20 30 -4 0 -5 5 -2 10 4 6 10 8 15 5 5 -3 12 6 16 20 3 14 11
22 18 19 6 -3 0 4 -14 16 -14 12 -19 19 -12 15 15 -8 16 21 0 31 -8 5 -6 11 7
20 15 11 16 16 5 29 -7 9 -18 14 -25 11 -6 -2 -12 2 -12 10 0 7 6 15 14 18 11
5 11 10 1 28 -7 13 -17 26 -23 30 -9 7 15 12 40 9 6 -1 1 6 -10 14 -17 14 -18
17 -5 25 8 5 10 10 5 10 -6 0 -16 9 -23 21 -8 12 -9 18 -4 15 5 -3 15 1 22 9
11 13 10 14 -6 9 -10 -4 -16 -4 -12 1 4 4 2 15 -5 24 -10 14 -10 14 5 3 15
-12 17 -11 15 7 -1 12 -5 21 -9 21 -4 0 -8 16 -8 36 0 33 -2 35 -17 23 -16
-13 -17 -12 -5 3 8 10 21 14 30 11 11 -4 8 2 -7 15 -13 12 -19 22 -13 22 7 0
12 5 12 11 0 6 -8 8 -17 5 -15 -5 -15 -4 1 9 12 9 15 15 7 15 -11 0 -11 3 0
17 10 11 10 14 2 9 -7 -4 -13 -2 -13 3 0 6 5 11 11 11 8 0 7 6 -2 17 -12 15
-12 16 1 8 8 -4 4 4 -9 18 -13 15 -28 24 -32 21 -5 -3 -4 7 1 23 9 25 9 26 -4
10 -9 -12 -16 -14 -21 -8 -3 6 -1 11 5 11 6 0 10 8 8 17 -1 10 1 24 6 31 4 7
3 19 -3 26 -14 17 -4 46 17 46 12 0 13 3 5 11 -6 6 -9 18 -6 27 5 11 2 13 -8
7 -11 -6 -12 -5 -1 6 13 14 16 30 5 27 -17 -3 -43 15 -43 31 0 14 2 14 10 1 5
-8 10 -12 11 -7 1 4 2 13 4 20 1 6 -4 22 -12 35 -10 16 -11 27 -3 42 6 11 8
20 4 20 -3 0 -1 7 6 15 7 9 10 18 6 22 -3 3 -6 1 -6 -6 0 -9 -5 -9 -21 -1 -16
9 -18 14 -9 26 7 7 17 11 24 7 6 -4 5 1 -3 10 -10 13 -10 17 -1 17 8 0 10 6 5
18 -4 9 -8 33 -9 53 -1 20 -8 44 -15 52 -11 14 -10 16 8 12 14 -3 18 0 14 11
-3 8 -11 13 -17 11 -7 -3 -12 3 -12 13 0 10 3 17 7 15 3 -3 4 7 1 20 -3 17 0
25 9 26 8 0 4 4 -8 9 -24 10 -32 53 -13 65 11 7 -12 35 -29 35 -6 0 -11 5 -11
10 0 20 -3 25 -23 39 -19 13 -19 15 -2 27 9 7 14 18 10 24 -6 9 -10 9 -17 -1
-5 -9 -6 -3 -2 16 7 28 6 29 -11 15 -17 -14 -17 -14 -4 8 16 25 25 28 32 10 3
-7 4 -3 4 9 -1 12 -6 19 -12 16 -5 -3 -5 0 2 7 9 10 9 16 -2 26 -7 8 -18 14
-24 14 -5 0 -13 4 -16 10 -3 6 1 7 9 4 13 -5 15 0 10 26 -5 21 -3 35 5 40 9 5
8 9 -4 13 -9 4 -14 3 -11 -2 3 -5 0 -11 -7 -14 -10 -4 -13 2 -9 20 4 20 1 24
-14 21 -13 -2 -18 2 -15 12 2 8 6 30 9 47 2 18 8 30 13 27 5 -3 9 2 9 10 0 20
-17 30 -23 14 -3 -8 -6 -6 -6 5 -1 10 -5 15 -11 12 -15 -9 -12 2 6 19 14 15
14 16 0 16 -9 0 -16 5 -16 10 0 21 -2 26 -20 55 -23 37 -23 45 -2 69 9 11 11
16 5 12 -7 -4 -13 -2 -13 4 0 6 -6 8 -12 4 -7 -4 -10 -4 -6 1 4 4 3 14 -3 22
-6 7 -8 13 -4 13 4 0 2 7 -5 15 -7 8 -18 15 -24 15 -6 0 -3 -7 7 -14 16 -13
16 -14 1 -20 -9 -4 -19 -4 -22 -1 -3 3 0 5 8 5 9 0 10 3 1 13 -8 10 -7 17 2
26 10 10 6 11 -18 7 -16 -4 -23 -3 -15 1 8 3 21 13 30 22 13 13 13 14 -2 8
-10 -3 -20 -2 -23 4 -4 5 -1 8 6 7 6 -2 14 3 17 11 3 9 0 11 -8 6 -9 -6 -9 -3
-1 14 9 16 9 21 -1 21 -9 0 -9 3 2 10 10 6 11 10 3 10 -7 0 -13 8 -13 18 0 15
-2 15 -11 2 -9 -12 -10 -12 -5 3 3 10 6 21 6 23 0 3 5 2 12 -2 7 -4 8 -3 4 5
-4 6 -11 9 -16 6 -5 -3 -12 0 -16 7 -11 17 -12 48 -2 42 4 -3 8 -1 8 5 0 5 -8
12 -17 15 -17 6 -48 56 -34 54 22 -2 23 4 1 20 -28 19 -34 34 -32 74 1 17 -4
27 -11 25 -7 -1 -11 7 -9 18 2 15 0 17 -6 6 -12 -17 -24 1 -16 26 5 16 4 16
-12 -2 -14 -17 -16 -17 -11 -2 4 9 1 17 -5 17 -6 0 -5 6 3 17 12 14 12 16 0 8
-11 -6 -13 -4 -7 11 16 39 17 66 4 58 -10 -6 -9 -3 1 9 9 12 10 17 2 17 -7 0
-10 4 -7 9 7 11 -29 43 -39 34 -4 -5 -2 3 5 16 9 17 9 21 0 16 -7 -4 -10 -1
-8 11 2 11 -2 18 -9 17 -18 -4 -24 25 -7 41 8 9 10 17 5 21 -6 3 -15 -4 -21
-15 -6 -12 -18 -19 -25 -16 -9 3 -12 0 -8 -10 3 -8 11 -13 17 -11 7 3 13 -4
13 -14 1 -11 -5 -19 -13 -19 -8 0 -14 6 -14 14 0 8 -7 22 -15 30 -14 14 -12
17 20 31 37 15 44 43 10 37 -16 -3 -17 -1 -6 12 7 9 17 14 21 11 5 -3 12 -1
15 5 4 6 1 9 -7 8 -7 -2 -12 5 -12 15 2 13 -1 15 -10 7 -7 -5 -15 -7 -19 -4
-9 9 4 35 14 28 18 -11 8 22 -11 39 -20 17 -29 54 -10 42 16 -10 11 1 -7 16
-10 8 -14 9 -10 2 4 -6 3 -14 -3 -18 -6 -3 -10 4 -10 17 0 13 -3 18 -8 12 -5
-9 -10 -8 -19 2 -8 8 -9 15 -3 19 6 3 10 1 10 -5 0 -6 5 -8 10 -5 6 4 7 11 4
17 -4 7 -2 8 5 4 6 -4 9 -12 6 -17 -4 -5 -1 -9 4 -9 14 0 14 6 0 31 -5 11 -15
17 -22 13 -7 -4 -9 -4 -5 1 4 4 3 13 -2 20 -7 8 -5 12 5 12 8 0 11 -5 8 -10
-3 -6 -2 -7 4 -4 5 3 9 16 7 29 -1 13 -3 27 -3 31 -1 5 -7 5 -13 1 -10 -6 -10
-4 0 7 6 7 12 18 12 24 0 5 -5 3 -10 -5 -7 -11 -9 -3 -8 28 1 24 6 46 11 49 5
3 -9 14 -31 24 -23 11 -44 25 -48 32 -6 9 -4 9 8 -1 12 -10 18 -10 27 2 9 10
9 16 1 21 -8 5 -8 11 0 20 5 7 8 23 6 36 -3 13 -5 27 -5 32 -1 4 -6 7 -12 7
-5 0 -7 -4 -4 -10 3 -5 1 -10 -4 -10 -6 0 -9 10 -7 23 2 12 9 21 16 19 6 -1 9
2 5 8 -3 6 -12 7 -18 3 -7 -4 -5 2 3 12 14 17 13 18 -1 13 -11 -4 -26 3 -40
18 -18 19 -19 23 -6 18 9 -3 17 -10 17 -15 0 -19 16 -8 33 23 11 20 13 27 4
20 -8 -7 -18 -8 -22 -4 -5 4 -5 1 0 -7 5 -9 4 -12 -3 -7 -19 11 -15 39 4 32
14 -5 15 -4 5 8 -7 8 -10 20 -6 26 3 5 0 10 -7 11 -7 0 -4 4 7 9 15 6 16 9 4
9 -14 1 -24 31 -9 31 3 0 6 9 7 20 1 11 -2 18 -7 15 -4 -3 -10 2 -14 10 -3 10
1 15 12 15 15 0 15 2 2 10 -11 7 -12 10 -2 10 10 0 9 4 -2 16 -9 8 -14 21 -10
27 3 7 -1 4 -9 -6 -10 -12 -17 -14 -22 -8 -3 6 -1 11 6 11 7 0 10 3 6 6 -3 4
1 20 10 37 11 22 12 32 4 35 -7 2 -6 9 4 18 8 9 20 12 27 8 9 -5 8 -2 -1 10
-12 15 -12 17 0 14 8 -2 13 3 12 10 -2 6 1 12 6 12 5 0 12 14 16 30 4 17 11
30 16 30 5 0 9 5 9 11 0 5 -4 8 -8 5 -4 -2 -8 5 -9 17 0 12 1 16 4 10 3 -7 12
-13 21 -13 14 0 15 2 2 10 -12 8 -12 11 3 28 9 10 17 23 17 28 0 5 -5 2 -11
-6 -9 -13 -10 -13 -6 0 2 8 8 15 13 15 25 1 33 16 22 40 -8 19 -8 28 2 40 7 8
16 13 20 10 11 -7 24 13 27 42 3 16 -1 21 -14 19 -10 -2 -12 -1 -5 1 7 3 9 9
6 15 -5 7 -2 8 6 3 10 -6 12 -4 7 8 -4 11 -2 14 7 11 13 -5 56 68 56 95 0 7 4
10 9 6 5 -3 13 0 17 6 4 7 3 9 -3 6 -7 -4 -10 3 -9 18 0 14 7 25 15 25 8 0 11
6 7 16 -3 8 -2 12 4 9 10 -6 14 7 11 33 -1 6 3 12 10 12 6 0 8 7 5 16 -4 10
-2 13 6 8 7 -5 9 1 6 20 -5 23 -3 24 10 14 13 -11 14 -10 4 9 -9 16 -9 24 0
29 7 5 8 3 3 -6 -5 -8 -4 -11 2 -7 6 4 9 18 8 32 -2 14 2 28 7 32 7 4 8 1 3
-8 -8 -12 -6 -12 8 0 18 15 23 26 7 16 -5 -3 -10 1 -10 9 0 9 5 16 10 16 16 0
12 22 -7 36 -17 12 -16 13 4 9 13 -2 24 3 27 11 3 9 1 12 -4 9 -18 -11 -10 11
10 30 11 10 17 22 13 27 -3 6 1 14 8 19 11 7 11 9 1 9 -10 0 -10 3 0 14 7 8
18 11 23 8 6 -2 5 1 -2 8 -9 10 -5 18 15 36 22 19 23 23 7 17 -18 -6 -18 -5
-7 10 8 9 11 21 7 26 -3 6 0 8 8 5 10 -3 16 3 19 20 3 14 1 26 -3 26 -16 0 -9
29 9 39 9 5 16 13 15 18 -2 4 2 9 7 9 23 3 24 5 10 14 -8 5 -10 10 -5 10 6 0
11 9 12 21 2 18 0 19 -15 7 -15 -11 -15 -11 -5 3 10 12 9 20 -2 36 -13 18 -13
22 0 26 9 4 12 1 8 -9 -3 -7 0 -14 6 -14 6 0 11 4 11 10 0 5 6 7 14 4 11 -4
14 1 12 20 -2 15 1 29 6 32 4 3 5 11 1 17 -4 7 -8 22 -9 34 -1 18 4 22 21 19
17 -3 21 1 22 23 1 48 3 52 16 45 9 -6 9 -5 0 8 -7 8 -10 18 -6 21 3 4 1 7 -6
7 -7 0 -9 5 -6 10 4 6 11 8 16 5 5 -3 6 1 3 10 -4 10 -13 14 -23 11 -13 -5
-13 -4 2 8 9 7 17 21 17 30 0 9 6 16 13 16 7 0 8 3 2 8 -5 4 -12 16 -13 27 -2
11 -8 25 -13 32 -11 12 7 30 18 19 4 -3 0 -6 -8 -6 -11 0 -11 -2 1 -10 18 -11
40 -14 25 -2 -6 4 -11 16 -11 27 0 11 5 23 11 27 6 5 5 8 -3 8 -10 0 -10 5 -2
20 6 11 14 19 18 16 4 -2 8 4 8 15 0 14 -5 19 -17 16 -23 -6 -14 22 15 46 16
13 17 16 3 11 -9 -3 -23 -1 -31 5 -7 6 -16 8 -19 5 -3 -4 -5 3 -4 15 1 22 31
29 42 11 3 -5 12 -10 18 -10 8 0 7 3 -2 9 -11 7 -11 9 0 14 10 4 10 6 2 6 -7
1 -13 6 -13 12 0 5 3 8 8 6 4 -3 8 6 8 19 1 13 -2 21 -7 18 -5 -3 -9 0 -9 5 0
6 5 11 10 11 6 0 10 8 10 18 0 14 2 15 10 2 7 -10 10 -11 10 -2 0 7 -6 15 -14
18 -17 7 -10 33 13 51 14 10 14 12 -1 18 -10 4 -15 11 -12 16 3 5 -2 6 -10 3
-9 -3 -16 -1 -16 4 0 6 8 12 17 14 15 3 15 4 -1 21 -10 9 -13 17 -7 17 5 0 13
-4 16 -10 3 -5 12 -10 18 -10 7 0 6 4 -3 10 -11 8 -12 12 -3 18 8 5 9 13 3 22
-8 13 -10 12 -10 -2 0 -10 -5 -18 -12 -18 -6 0 -8 3 -5 7 4 3 1 13 -6 21 -6 9
-7 13 -2 10 6 -4 17 -3 25 3 12 7 12 9 1 9 -8 0 -4 7 10 18 17 15 19 21 9 27
-8 5 -11 4 -6 -3 3 -6 2 -13 -4 -17 -5 -3 -10 3 -10 14 0 10 6 22 13 24 10 4
10 6 0 6 -7 1 -13 6 -13 12 0 6 7 8 16 5 14 -5 15 -4 4 9 -10 12 -10 15 4 15
20 0 21 16 2 23 -14 6 -16 30 -3 43 4 4 0 19 -10 33 -16 25 -16 25 2 11 17
-14 18 -13 11 5 -12 33 -12 40 4 37 11 -3 11 1 -3 16 -20 22 -22 48 -4 55 10
4 10 6 0 6 -17 1 -17 88 -1 93 7 3 5 7 -6 11 -10 4 -15 3 -11 -3 3 -6 1 -10
-4 -10 -6 0 -11 9 -11 21 0 13 4 18 13 13 6 -4 4 2 -5 13 -10 11 -18 24 -18
29 0 5 5 1 11 -8 8 -14 13 -15 23 -6 11 11 10 15 -3 25 -15 11 -14 13 4 28 14
12 15 15 4 12 -19 -6 -18 27 0 61 8 15 8 23 -1 28 -6 4 -8 3 -4 -4 10 -17 -8
-21 -29 -6 -16 12 -17 16 -5 27 10 10 11 9 5 -3 -5 -9 -4 -12 1 -7 25 23 4 47
-35 41 -25 -4 -25 -3 -7 10 22 18 15 46 -11 42 -10 -2 -12 -1 -5 1 10 4 17 26
10 36 -1 1 4 13 12 27 10 21 10 23 -1 13 -7 -7 -21 -13 -32 -13 -10 0 -15 -5
-12 -10 4 -6 10 -8 15 -5 5 3 8 -3 7 -13 0 -10 -7 -19 -14 -19 -6 0 -10 4 -7
9 3 5 0 15 -6 23 -10 12 -7 17 15 27 25 11 25 13 9 25 -13 10 -14 13 -3 13 12
0 12 2 0 9 -9 6 -22 6 -34 -1 -14 -7 -22 -6 -31 3 -8 9 -7 11 6 6 9 -3 24 1
35 9 10 9 12 13 6 9 -7 -3 -13 -1 -13 4 0 6 -5 11 -11 11 -5 0 -7 -6 -4 -12 4
-7 -1 -4 -10 7 -9 11 -19 19 -23 17 -3 -2 -8 2 -11 9 -2 8 2 10 14 5 15 -5 16
-4 5 9 -11 14 -14 13 -26 -2 -12 -15 -13 -15 -8 -2 4 12 -6 22 -33 37 -21 11
-37 25 -36 31 2 5 -4 8 -12 5 -9 -4 -23 0 -32 7 -14 12 -16 12 -8 -1 8 -13 6
-13 -8 -2 -9 8 -20 11 -25 8 -5 -3 -23 4 -41 15 -23 14 -44 18 -79 15 -25 -3
-49 -1 -52 3 -3 4 -11 6 -18 4z m23 -143 c3 -6 -1 -7 -9 -4 -18 7 -21 14 -7
14 6 0 13 -4 16 -10z m409 -81 c3 -3 -4 -5 -14 -6 -11 -1 -20 2 -20 7 0 8 25
8 34 -1z m-1401 -43 c-3 -4 -9 -2 -14 5 -13 22 -11 31 5 17 8 -7 12 -17 9 -22z
m-8889 -14 c3 -5 -1 -9 -9 -9 -8 0 -12 4 -9 9 3 4 7 8 9 8 2 0 6 -4 9 -8z
m1121 -92 c3 -5 2 -10 -4 -10 -5 0 -13 5 -16 10 -3 6 -2 10 4 10 5 0 13 -4 16
-10z m55 -22 c0 -5 -9 -4 -20 2 -11 6 -20 12 -20 14 0 2 9 2 20 -1 11 -3 20
-9 20 -15z m7620 -20 c0 -6 -6 -5 -15 2 -8 7 -15 14 -15 16 0 2 7 1 15 -2 8
-4 15 -11 15 -16z m-2400 -28 c-8 -5 -19 -10 -25 -10 -5 0 -3 5 5 10 8 5 20
10 25 10 6 0 3 -5 -5 -10z m-6185 -38 c-3 -3 -11 0 -18 7 -9 10 -8 11 6 5 10
-3 15 -9 12 -12z m40 -2 c4 -6 1 -9 -7 -8 -7 2 -12 -2 -11 -9 2 -7 -4 -10 -12
-6 -13 5 -13 7 2 19 22 16 20 16 28 4z m88 -4 c4 -10 1 -13 -8 -9 -8 3 -12 9
-9 14 7 12 11 11 17 -5z m-150 -4 c4 -1 7 -7 7 -14 0 -9 -3 -9 -12 0 -15 15
-32 16 -22 1 4 -8 0 -8 -15 0 -11 7 -21 13 -21 15 0 3 45 1 63 -2z m-98 -12
c3 -5 1 -10 -4 -10 -6 0 -11 5 -11 10 0 6 2 10 4 10 3 0 8 -4 11 -10z m1648
-61 c-17 -17 -37 -1 -22 17 8 10 15 12 23 4 7 -7 7 -13 -1 -21z m-917 -46 c-8
-8 -36 5 -36 17 0 7 6 7 21 0 11 -7 18 -14 15 -17z m6717 7 c-3 -12 -8 -19
-11 -16 -5 6 5 36 12 36 2 0 2 -9 -1 -20z m-6613 6 c0 -2 -7 -7 -16 -10 -8 -3
-12 -2 -9 4 6 10 25 14 25 6z m3740 0 c0 -3 -4 -8 -10 -11 -5 -3 -10 -1 -10 4
0 6 5 11 10 11 6 0 10 -2 10 -4z m2965 -6 c3 -5 1 -10 -4 -10 -6 0 -11 5 -11
10 0 6 2 10 4 10 3 0 8 -4 11 -10z m-1695 -10 c0 -5 -5 -10 -11 -10 -5 0 -7 5
-4 10 3 6 8 10 11 10 2 0 4 -4 4 -10z m-4184 -12 c4 -7 4 -10 -1 -6 -4 4 -15
2 -24 -5 -14 -11 -14 -10 -2 6 16 20 18 21 27 5z m3584 8 c0 -2 -8 -10 -17
-17 -16 -13 -17 -12 -4 4 13 16 21 21 21 13z m-4333 -23 c5 -13 -43 -11 -55 2
-4 4 4 4 17 0 17 -5 22 -4 16 5 -5 8 -3 11 5 8 8 -2 15 -9 17 -15z m3970 -5
c-3 -8 -6 -5 -6 6 -1 11 2 17 5 13 3 -3 4 -12 1 -19z m837 9 c-3 -8 3 -20 12
-28 16 -13 17 -12 10 6 -4 11 -4 16 0 12 4 -4 13 -2 19 3 9 8 14 6 18 -4 4 -9
15 -13 26 -11 11 2 23 0 25 -4 3 -4 -14 -8 -36 -10 -23 -1 -45 -4 -48 -6 -11
-7 -43 33 -35 44 9 15 15 14 9 -2z m386 -22 c0 -9 10 -15 25 -15 14 0 25 -5
25 -11 0 -6 -7 -9 -15 -5 -8 3 -15 0 -15 -7 0 -8 -3 -9 -8 -1 -4 6 -17 10 -30
9 -13 -1 -26 3 -29 8 -4 6 -1 7 7 2 9 -6 11 -4 5 4 -5 9 -10 10 -18 2 -14 -14
-40 -15 -32 -1 3 6 1 10 -4 10 -6 0 -11 -4 -11 -10 0 -5 -6 -7 -14 -4 -8 3
-24 1 -35 -5 -16 -9 -19 -9 -16 1 3 8 -4 13 -20 13 -14 0 -25 -4 -25 -9 0 -5
-7 -3 -15 4 -10 9 -15 9 -15 1 0 -6 -4 -11 -8 -11 -5 0 -9 7 -9 15 0 8 4 15 9
15 5 0 6 6 2 13 -5 7 -1 6 10 -3 23 -19 53 -23 76 -10 13 7 21 7 25 0 4 -6 11
-8 16 -4 5 3 6 10 3 16 -4 5 4 4 17 -4 13 -8 30 -14 37 -13 6 2 22 3 35 4 17
1 19 3 7 10 -8 6 -18 7 -24 4 -5 -3 -6 -1 -2 5 10 16 46 -3 46 -23z m-4889 0
c5 4 9 1 9 -4 0 -6 -9 -11 -21 -11 -11 0 -17 5 -14 10 3 6 1 10 -5 10 -6 0 -8
5 -4 11 5 8 10 6 16 -5 5 -9 13 -14 19 -11z m3619 21 c0 -3 -4 -8 -10 -11 -5
-3 -10 -1 -10 4 0 6 5 11 10 11 6 0 10 -2 10 -4z m678 -10 c-10 -7 -16 -15
-14 -17 3 -2 -11 -4 -29 -4 -49 0 -29 29 22 32 33 1 36 0 21 -11z m-3695 -11
c4 -8 3 -16 -1 -19 -4 -3 -9 4 -9 15 -2 23 3 25 10 4z m3461 0 c3 -8 1 -15 -4
-15 -6 0 -10 7 -10 15 0 8 2 15 4 15 2 0 6 -7 10 -15z m343 -15 c4 -12 3 -12
-5 -2 -10 15 -18 15 -44 1 -10 -6 -19 -5 -23 1 -4 6 -11 8 -16 5 -5 -4 -9 -2
-9 3 0 16 93 9 97 -8z m73 4 c0 -2 -9 -4 -20 -4 -11 0 -20 4 -20 9 0 5 9 7 20
4 11 -3 20 -7 20 -9z m534 -5 c-7 -11 34 -8 54 4 7 5 12 3 12 -3 0 -6 5 -8 10
-5 6 3 10 2 10 -4 0 -11 62 -8 93 4 9 4 17 3 17 -2 0 -5 9 -9 20 -9 11 0 20 4
20 8 0 4 14 6 30 4 17 -2 30 0 30 5 0 5 6 6 14 3 9 -3 12 -12 8 -22 -5 -15 -4
-15 12 1 21 20 23 21 32 5 5 -7 3 -8 -6 -3 -9 6 -11 4 -5 -5 6 -10 10 -10 19
2 17 24 23 24 44 5 11 -10 32 -20 48 -23 15 -3 31 -7 36 -10 4 -3 8 0 8 6 0 6
5 8 12 4 8 -5 9 -2 5 9 -3 10 -2 17 3 17 9 0 14 -14 11 -32 0 -4 7 -7 17 -8
47 -2 80 -7 92 -15 9 -6 11 -4 5 6 -6 11 -5 12 6 2 19 -18 37 -16 42 5 3 14 6
13 14 -7 5 -14 13 -20 16 -14 7 10 68 -4 83 -20 4 -3 15 -2 25 4 11 5 19 6 19
1 0 -4 9 -8 20 -9 11 -1 18 2 15 8 -8 12 -2 11 31 -5 15 -8 31 -13 36 -10 5 3
15 1 22 -5 7 -6 25 -12 40 -13 14 -1 26 -7 26 -13 0 -5 4 -4 9 3 7 11 9 10 15
-3 3 -9 10 -13 16 -10 5 3 10 2 10 -2 0 -5 10 -9 21 -10 25 -2 109 -40 109
-50 0 -3 -3 -3 -7 0 -3 4 -11 3 -17 -2 -19 -14 -66 -22 -66 -11 0 6 4 9 9 5 5
-3 12 -1 15 3 3 5 -5 8 -17 8 -12 -1 -28 3 -36 8 -12 9 -13 8 -6 -4 7 -13 6
-13 -11 0 -10 9 -36 15 -56 15 -21 -1 -38 3 -38 7 0 4 -12 3 -26 -2 -16 -7
-23 -7 -19 0 6 9 -8 14 -27 11 -5 0 -8 4 -8 10 0 7 -10 9 -25 7 -14 -3 -25 -1
-25 3 0 5 -7 6 -15 3 -8 -4 -22 -1 -30 6 -9 7 -18 10 -22 6 -3 -3 -15 2 -26
11 -11 10 -17 12 -13 5 6 -10 0 -9 -23 2 -23 13 -31 13 -31 4 0 -9 -3 -10 -8
-2 -4 6 -17 10 -29 9 -13 -1 -19 3 -16 8 4 7 -1 8 -12 3 -10 -4 -21 -2 -24 3
-6 10 -96 23 -161 24 -19 0 -38 5 -42 11 -5 8 -8 8 -8 0 0 -13 -47 -7 -56 7
-3 5 -12 9 -20 9 -9 0 -12 -5 -8 -12 5 -7 3 -8 -6 -3 -7 4 -26 10 -42 11 -22
3 -29 0 -25 -9 3 -8 -1 -14 -8 -14 -7 0 -11 6 -8 14 3 7 1 13 -3 14 -5 0 -31
2 -57 4 -27 2 -51 6 -54 9 -3 3 -15 1 -26 -5 -12 -7 -17 -7 -13 -1 8 13 -84
13 -101 0 -16 -12 -28 11 -14 25 9 9 11 7 6 -8 -6 -20 -6 -20 9 -1 8 10 13 23
9 29 -3 6 -1 7 6 3 6 -4 9 -12 5 -17z m226 17 c0 -3 -4 -8 -10 -11 -5 -3 -10
-1 -10 4 0 6 5 11 10 11 6 0 10 -2 10 -4z m-2360 -11 c0 -2 -6 -8 -13 -14 -10
-8 -14 -7 -14 2 0 8 6 14 14 14 7 0 13 -1 13 -2z m-2138 -52 c-6 -3 -9 -10 -6
-15 4 -7 2 -8 -5 -4 -9 6 -9 11 0 22 6 8 15 12 18 8 3 -4 0 -9 -7 -11z m5248
-8 c-15 -17 -40 -20 -40 -4 0 6 7 9 15 6 8 -4 17 -2 20 3 4 6 9 10 12 10 3 0
0 -7 -7 -15z m3087 -31 c-3 -3 -12 -4 -19 -1 -8 3 -5 6 6 6 11 1 17 -2 13 -5z
m-8763 -20 c9 -8 16 -21 16 -27 0 -7 -7 -4 -15 7 -7 10 -18 15 -24 11 -7 -3
-8 0 -5 9 8 20 9 20 28 0z m552 -11 c-7 -7 -26 7 -26 19 0 6 6 6 15 -2 9 -7
13 -15 11 -17z m88 -49 c3 -8 2 -12 -4 -9 -6 3 -10 10 -10 16 0 14 7 11 14 -7z
m-2696 -249 c-3 -3 -9 2 -12 12 -6 14 -5 15 5 6 7 -7 10 -15 7 -18z m2924 -27
c-7 -7 -12 -8 -12 -2 0 14 12 26 19 19 2 -3 -1 -11 -7 -17z m415 -24 c-3 -3
-12 -4 -19 -1 -8 3 -5 6 6 6 11 1 17 -2 13 -5z m7208 -344 c3 -5 2 -10 -4 -10
-10 0 -8 -31 3 -49 4 -5 -3 -7 -15 -4 -12 4 -18 11 -15 20 3 8 6 23 6 34 0 20
15 26 25 9z m62 -64 c-1 -6 7 -10 18 -9 11 1 14 0 7 -3 -6 -3 -10 -9 -7 -14 3
-5 -3 -7 -12 -6 -10 2 -18 7 -18 12 0 5 -3 14 -7 20 -4 6 -1 11 7 11 8 0 13
-5 12 -11z m-91 -15 c-4 -5 0 -12 6 -14 8 -3 5 -6 -6 -6 -12 -1 -16 -6 -12
-16 15 -38 18 -50 8 -36 -7 10 -11 10 -17 1 -4 -6 1 -18 11 -26 11 -9 14 -13
7 -10 -14 8 -48 -25 -35 -33 5 -3 9 -21 8 -39 -1 -27 -3 -30 -13 -17 -8 12
-13 13 -18 4 -5 -7 -1 -16 9 -21 9 -5 16 -14 16 -21 0 -8 -3 -7 -9 2 -7 10
-13 5 -24 -20 -21 -46 -32 -89 -18 -69 6 8 11 10 11 4 0 -6 -6 -17 -14 -23 -8
-7 -17 -23 -20 -36 -4 -14 -10 -25 -15 -25 -5 0 -8 -13 -7 -29 1 -17 -2 -28
-6 -25 -4 3 -8 -9 -8 -26 0 -17 -4 -29 -9 -25 -6 3 -8 15 -5 28 3 12 7 35 8
51 2 15 9 32 17 36 11 7 10 13 -6 30 -18 20 -18 21 0 14 13 -5 16 -4 11 4 -4
7 -2 12 4 12 6 0 8 5 5 10 -3 6 -1 10 5 10 6 0 9 4 6 8 -3 5 0 26 6 48 7 21
12 41 13 44 0 3 3 10 6 15 4 6 12 33 19 62 8 29 18 49 23 46 6 -4 8 0 4 10 -3
9 -2 19 2 21 5 3 11 19 14 36 4 16 11 30 17 30 6 0 9 -4 6 -9z m103 -44 c13 4
14 3 1 -5 -9 -7 -19 -7 -26 -2 -6 6 -15 6 -19 2 -5 -4 -5 -1 0 6 5 9 11 10 17
4 6 -6 18 -8 27 -5z m11 -32 c0 -8 -7 -15 -15 -15 -26 0 -18 20 13 29 1 1 2
-6 2 -14z m40 -25 c0 -5 -2 -10 -4 -10 -3 0 -8 5 -11 10 -3 6 -1 10 4 10 6 0
11 -4 11 -10z m-13 -23 c16 -9 29 -24 30 -36 2 -28 -5 -26 -17 5 -6 14 -14 23
-19 19 -5 -3 -13 0 -17 6 -5 9 -11 6 -22 -7 -11 -14 -13 -15 -9 -3 3 9 0 22
-6 28 -15 15 22 7 60 -12z m-7 -37 c0 -5 -4 -10 -9 -10 -6 0 -13 5 -16 10 -3
6 1 10 9 10 9 0 16 -4 16 -10z m57 -32 c-3 -8 -6 -5 -6 6 -1 11 2 17 5 13 3
-3 4 -12 1 -19z m23 -88 c0 -5 -4 -10 -10 -10 -5 0 -10 5 -10 10 0 6 5 10 10
10 6 0 10 -4 10 -10z m-10526 -76 c3 -8 2 -12 -4 -9 -6 3 -10 10 -10 16 0 14
7 11 14 -7z m10406 -265 c0 -5 -4 -9 -8 -9 -5 0 -9 7 -9 15 0 8 4 12 9 9 4 -3
8 -9 8 -15z m-285 -7 c-3 -3 -11 0 -18 7 -9 10 -8 11 6 5 10 -3 15 -9 12 -12z
m108 -46 c7 4 4 -1 -5 -11 -22 -23 -29 -17 -21 15 6 20 8 21 11 7 2 -10 9 -14
15 -11z m37 14 c0 -5 -5 -10 -11 -10 -5 0 -7 5 -4 10 3 6 8 10 11 10 2 0 4 -4
4 -10z m-40 -54 c0 -3 -4 -8 -10 -11 -5 -3 -10 -1 -10 4 0 6 5 11 10 11 6 0
10 -2 10 -4z m-9909 -53 c10 -11 10 -14 2 -9 -7 4 -13 3 -13 -3 0 -6 -7 -8
-15 -5 -9 4 -15 0 -15 -10 0 -9 -4 -16 -10 -16 -13 0 -13 3 2 35 13 29 30 32
49 8z m24 -51 c-6 -7 -34 11 -29 19 3 5 11 3 19 -4 7 -6 12 -13 10 -15z m18
-25 c3 -7 -2 -22 -10 -32 -9 -12 -13 -14 -10 -5 2 8 0 23 -5 33 -6 12 -5 17 6
17 7 0 16 -6 19 -13z m17 -31 c0 -3 -4 -8 -10 -11 -5 -3 -10 -1 -10 4 0 6 5
11 10 11 6 0 10 -2 10 -4z m13 -56 c24 -48 30 -85 14 -98 -11 -9 -13 -5 -12
23 1 19 -2 32 -7 29 -4 -3 -6 -9 -3 -14 3 -5 1 -11 -4 -14 -4 -3 -7 14 -6 39
1 24 -1 42 -5 40 -4 -2 -7 2 -7 10 0 24 15 17 30 -15z m34 -107 c-4 -3 0 -17
8 -30 9 -13 13 -23 10 -23 -3 0 1 -15 9 -34 16 -39 5 -72 -13 -37 -7 13 -17
19 -24 14 -9 -5 -9 -4 0 8 8 10 9 27 3 54 -8 37 -6 55 7 55 4 0 3 -3 0 -7z
m50 -168 c-4 -8 -2 -17 3 -20 5 -3 7 -16 4 -30 -2 -13 0 -27 6 -30 6 -4 8 -11
5 -16 -4 -5 0 -9 7 -9 10 0 10 -2 0 -9 -8 -4 -13 -11 -13 -15 3 -22 0 -36 -9
-36 -7 0 -7 6 0 20 8 15 8 20 -2 20 -9 0 -9 3 2 10 8 5 10 10 4 10 -7 0 -11 8
-10 18 1 12 -5 16 -19 14 -16 -2 -17 -1 -5 7 8 6 11 11 5 11 -5 0 -3 5 5 10
13 9 13 11 1 19 -12 8 -12 12 -2 25 17 20 25 21 18 1z m9608 -54 c3 -5 2 -12
-3 -15 -5 -3 -9 1 -9 9 0 17 3 19 12 6z m-38 -178 c-2 -2 -14 -6 -27 -8 -18
-3 -20 -2 -10 10 6 8 18 11 26 8 8 -3 13 -7 11 -10z m-8522 -52 c3 -5 2 -12
-3 -15 -5 -3 -9 1 -9 9 0 17 3 19 12 6z m8523 -9 c6 -18 -15 -14 -22 4 -4 10
-1 14 6 12 6 -2 14 -10 16 -16z m-8524 -108 c5 -13 4 -14 -7 -6 -8 7 -18 8
-22 4 -5 -4 -5 -1 -1 6 10 17 23 15 30 -4z m6 -105 c0 -10 -4 -19 -10 -19 -5
0 -10 -5 -10 -11 0 -5 4 -8 8 -5 5 3 9 -1 9 -8 0 -8 -7 -12 -15 -9 -9 4 -12
14 -7 32 3 14 6 31 7 38 2 19 18 4 18 -18z m-1270 -343 c0 -2 -7 -7 -16 -10
-8 -3 -12 -2 -9 4 6 10 25 14 25 6z m9420 -96 c-8 -5 -19 -6 -25 -2 -6 4 -3 8
8 10 9 2 15 8 11 13 -3 5 -10 6 -16 3 -7 -5 -8 -2 -3 5 6 10 11 9 24 -3 14
-14 14 -18 1 -26z m27 -22 c-3 -8 -6 -5 -6 6 -1 11 2 17 5 13 3 -3 4 -12 1
-19z m15 -42 c3 -5 4 -16 0 -24 -4 -11 -1 -13 8 -7 9 5 11 4 6 -3 -12 -20 -46
6 -47 36 l-1 27 -8 -25 c-7 -22 -8 -22 -9 -4 -1 11 2 24 6 27 6 7 31 -9 45
-27z m-9672 -71 c0 -8 -3 -16 -7 -18 -5 -3 -8 5 -8 18 0 13 3 21 8 18 4 -2 7
-10 7 -18z m9674 -1 c3 -8 2 -12 -4 -9 -6 3 -10 10 -10 16 0 14 7 11 14 -7z
m440 -673 c3 -5 -1 -11 -9 -14 -9 -4 -12 -1 -8 9 6 16 10 17 17 5z m-28 -89
c-2 -9 1 -20 6 -23 5 -3 -1 -14 -13 -24 -15 -15 -20 -16 -17 -5 2 9 -3 14 -12
12 -8 -2 -12 0 -8 4 4 4 3 13 -3 20 -7 9 -4 16 12 28 26 18 38 13 35 -12z
m-10355 -289 c-12 -20 -14 -14 -5 12 4 9 9 14 11 11 3 -2 0 -13 -6 -23z m-17
-49 c3 -8 2 -12 -4 -9 -6 3 -10 10 -10 16 0 14 7 11 14 -7z m3 -65 c2 -16 -1
-19 -9 -11 -5 5 -7 15 -4 21 10 15 12 14 13 -10z m10378 -129 c-3 -5 -14 -10
-23 -9 -14 0 -13 2 3 9 27 11 27 11 20 0z m240 -100 c3 -5 1 -10 -4 -10 -6 0
-11 5 -11 10 0 6 2 10 4 10 3 0 8 -4 11 -10z m19 -96 c3 -8 2 -12 -4 -9 -6 3
-10 10 -10 16 0 14 7 11 14 -7z m-197 -46 c2 -17 0 -19 -7 -8 -5 8 -6 18 -4
22 8 12 10 10 11 -14z m20 -52 c1 -12 -1 -15 -4 -7 -5 11 -7 11 -15 0 -8 -11
-9 -10 -5 3 3 9 1 19 -6 21 -7 3 -3 5 9 4 13 -1 20 -8 21 -21z m51 -56 c9 -14
9 -21 0 -26 -7 -4 -8 -3 -4 4 5 8 0 12 -13 12 -11 0 -25 8 -30 19 -9 15 -7 17
13 14 12 -3 27 -13 34 -23z m182 16 c0 -3 -4 -8 -10 -11 -5 -3 -10 -1 -10 4 0
6 5 11 10 11 6 0 10 -2 10 -4z m17 -18 c-3 -8 -6 -5 -6 6 -1 11 2 17 5 13 3
-3 4 -12 1 -19z m-215 -100 c-8 -8 -9 -4 -5 13 4 13 8 18 11 10 2 -7 -1 -18
-6 -23z m52 -95 c4 -9 2 -21 -3 -26 -6 -6 -9 -2 -8 9 1 11 -4 18 -11 16 -8 -1
-11 2 -7 8 9 15 22 12 29 -7z m26 -95 c0 -19 -16 -5 -17 14 -2 18 0 20 7 8 5
-8 10 -18 10 -22z m270 -118 c0 -5 -2 -10 -4 -10 -3 0 -8 5 -11 10 -3 6 -1 10
4 10 6 0 11 -4 11 -10z m-26 -26 c3 -8 2 -12 -4 -9 -6 3 -10 10 -10 16 0 14 7
11 14 -7z m69 -625 c4 -16 3 -18 -9 -8 -16 13 -19 29 -5 29 5 0 11 -9 14 -21z
m-28 -269 c3 -5 1 -10 -4 -10 -6 0 -11 5 -11 10 0 6 2 10 4 10 3 0 8 -4 11
-10z m95 -74 c0 -2 -8 -10 -17 -17 -16 -13 -17 -12 -4 4 13 16 21 21 21 13z
m30 -724 c0 -5 -6 -17 -14 -27 -13 -18 -14 -18 -9 8 5 24 23 39 23 19z m15
-102 c3 -5 1 -10 -4 -10 -6 0 -11 5 -11 10 0 6 2 10 4 10 3 0 8 -4 11 -10z
m-198 -492 c-3 -8 -6 -5 -6 6 -1 11 2 17 5 13 3 -3 4 -12 1 -19z m-15 -76 c3
-11 0 -19 -7 -19 -7 0 -10 8 -7 19 2 10 6 18 7 18 1 0 5 -8 7 -18z m-137 -132
c-3 -5 -14 -10 -23 -9 -14 0 -13 2 3 9 27 11 27 11 20 0z m59 -15 c-4 -8 -10
-12 -15 -9 -11 6 -2 24 11 24 5 0 7 -7 4 -15z m-384 -185 c0 -5 -5 -10 -11
-10 -5 0 -7 5 -4 10 3 6 8 10 11 10 2 0 4 -4 4 -10z m-9586 -86 c3 -8 2 -12
-4 -9 -6 3 -10 1 -10 -6 0 -7 -2 -10 -5 -7 -5 5 4 38 10 38 2 0 6 -7 9 -16z
m196 -10 c0 -8 -19 -13 -24 -6 -3 5 1 9 9 9 8 0 15 -2 15 -3z m4700 -118 c0
-2 -7 -7 -16 -10 -8 -3 -12 -2 -9 4 6 10 25 14 25 6z m4103 -9 c3 -8 -1 -14
-8 -14 -7 0 -11 6 -8 14 3 7 6 13 8 13 2 0 5 -6 8 -13z m-4082 -74 c13 -16 12
-17 -3 -4 -10 7 -18 15 -18 17 0 8 8 3 21 -13z m-5291 -7 c0 -3 -4 -8 -10 -11
-5 -3 -10 -1 -10 4 0 6 5 11 10 11 6 0 10 -2 10 -4z m2215 -56 c-3 -5 -12 -10
-18 -10 -7 0 -6 4 3 10 19 12 23 12 15 0z m190 -20 c3 -5 1 -10 -4 -10 -6 0
-11 5 -11 10 0 6 2 10 4 10 3 0 8 -4 11 -10z m5485 -30 c0 -5 -2 -10 -4 -10
-3 0 -8 5 -11 10 -3 6 -1 10 4 10 6 0 11 -4 11 -10z m-53 -62 c-16 -10 -21 -2
-13 19 6 15 9 15 16 3 6 -9 5 -17 -3 -22z m-4842 -316 c-3 -3 -11 0 -18 7 -9
10 -8 11 6 5 10 -3 15 -9 12 -12z m185 -143 c0 -7 7 -17 17 -24 11 -8 12 -14
5 -19 -6 -4 -18 6 -27 24 -9 17 -11 30 -5 30 5 0 10 -5 10 -11z m4393 -434
c-7 -21 -12 -19 -10 4 0 11 5 18 9 15 4 -3 5 -11 1 -19z m-4252 -512 c13 -16
12 -17 -3 -4 -17 13 -22 21 -14 21 2 0 10 -8 17 -17z m-463 -13 c-7 -10 -14
-18 -15 -16 -6 6 9 36 18 36 5 0 4 -9 -3 -20z m306 -46 c3 -8 2 -12 -4 -9 -6
3 -10 10 -10 16 0 14 7 11 14 -7z m71 -83 c3 -5 2 -12 -3 -15 -5 -3 -9 1 -9 9
0 17 3 19 12 6z m2921 -47 c-3 -9 -6 -18 -6 -20 0 -2 -5 -4 -11 -4 -8 0 -9 4
0 13 6 8 8 17 4 20 -3 4 -1 7 6 7 8 0 11 -6 7 -16z m37 -1 c-3 -7 -6 -13 -8
-13 -2 0 -5 6 -8 13 -3 8 1 14 8 14 7 0 11 -6 8 -14z m-80 -16 c-16 -17 -16
-17 0 -11 10 4 17 1 17 -6 0 -9 6 -8 19 4 14 13 21 14 26 6 4 -7 1 -16 -6 -21
-9 -6 -10 -9 -2 -9 7 0 16 7 21 16 8 15 10 15 15 0 4 -10 3 -15 -2 -12 -5 3
-11 -1 -14 -9 -4 -9 -1 -12 7 -9 9 3 14 -3 14 -20 0 -16 -5 -23 -14 -19 -8 3
-12 9 -9 13 3 4 -2 11 -11 14 -8 3 -13 2 -10 -3 3 -5 -5 -8 -19 -8 -14 0 -22
4 -19 9 4 6 -2 7 -15 3 -14 -4 -21 -2 -21 7 0 10 -3 9 -10 -2 -7 -11 -5 -19 7
-27 18 -14 6 -18 -15 -5 -18 12 -24 52 -7 52 7 0 15 7 19 15 3 8 1 15 -4 15
-6 0 -10 -6 -10 -12 0 -9 -3 -8 -9 2 -13 20 -5 29 21 22 12 -3 19 -1 15 4 -3
5 3 10 13 10 18 0 18 -1 3 -19z m307 -22 c11 -13 10 -14 -4 -9 -9 3 -16 10
-16 15 0 13 6 11 20 -6z m-184 -30 c1 -8 -2 -13 -7 -9 -5 3 -9 12 -9 21 0 19
13 9 16 -12z m-218 -26 c-4 19 21 26 28 7 3 -8 -1 -22 -9 -30 -13 -14 -16 -14
-21 0 -4 10 -13 13 -25 9 -22 -7 -37 10 -20 21 8 4 9 3 5 -4 -4 -7 -2 -12 3
-12 6 0 11 8 11 17 0 15 2 14 15 -3 9 -10 14 -13 13 -5z m222 -9 c0 -5 -2 -10
-4 -10 -3 0 -8 5 -11 10 -3 6 -1 10 4 10 6 0 11 -4 11 -10z m-105 -10 c3 -5 1
-10 -4 -10 -6 0 -11 5 -11 10 0 6 2 10 4 10 3 0 8 -4 11 -10z m45 -20 c0 -5
-2 -10 -4 -10 -3 0 -8 5 -11 10 -3 6 -1 10 4 10 6 0 11 -4 11 -10z m60 4 c0
-8 -19 -13 -24 -6 -3 5 1 9 9 9 8 0 15 -2 15 -3z m-2795 -105 c-4 -5 -12 -9
-18 -8 -9 0 -8 2 1 6 6 2 9 10 6 15 -4 7 -2 8 5 4 6 -4 9 -12 6 -17z m1586
-26 c13 -16 12 -17 -3 -4 -17 13 -22 21 -14 21 2 0 10 -8 17 -17z m793 -39 c3
-8 2 -12 -4 -9 -6 3 -10 10 -10 16 0 14 7 11 14 -7z m-1464 -99 c0 -12 -19
-12 -23 0 -4 9 -1 12 9 8 7 -3 14 -7 14 -8z m849 1 c8 -9 8 -16 2 -20 -6 -4
-15 3 -21 14 -12 23 2 27 19 6z m-965 -11 c-4 -8 -13 -15 -22 -15 -13 0 -12 3
4 15 24 18 25 18 18 0z m446 5 c0 -5 -4 -10 -10 -10 -5 0 -10 5 -10 10 0 6 5
10 10 10 6 0 10 -4 10 -10z m-66 -16 c5 -14 4 -15 -9 -4 -17 14 -19 20 -6 20
5 0 12 -7 15 -16z"/>
<path d="M2875 11010 c-3 -5 -1 -10 4 -10 6 0 11 5 11 10 0 6 -2 10 -4 10 -3
0 -8 -4 -11 -10z"/>
<path d="M1350 8866 c0 -2 8 -10 18 -17 15 -13 16 -12 3 4 -13 16 -21 21 -21
13z"/>
<path d="M10623 7775 c0 -8 4 -12 9 -9 5 3 6 10 3 15 -9 13 -12 11 -12 -6z"/>
<path d="M11015 6940 c3 -5 8 -10 11 -10 2 0 4 5 4 10 0 6 -5 10 -11 10 -5 0
-7 -4 -4 -10z"/>
<path d="M7075 780 c3 -5 8 -10 11 -10 2 0 4 5 4 10 0 6 -5 10 -11 10 -5 0 -7
-4 -4 -10z"/>
<path d="M11495 11260 c3 -5 8 -10 11 -10 2 0 4 5 4 10 0 6 -5 10 -11 10 -5 0
-7 -4 -4 -10z"/>
<path d="M11510 11224 c0 -8 5 -12 10 -9 6 3 10 10 10 16 0 5 -4 9 -10 9 -5 0
-10 -7 -10 -16z"/>
<path d="M11500 10098 c0 -4 4 -8 9 -8 6 0 12 4 15 8 3 5 -1 9 -9 9 -8 0 -15
-4 -15 -9z"/>
<path d="M11388 9533 c7 -3 16 -2 19 1 4 3 -2 6 -13 5 -11 0 -14 -3 -6 -6z"/>
<path d="M10980 8539 c0 -5 5 -7 10 -4 6 3 10 8 10 11 0 2 -4 4 -10 4 -5 0
-10 -5 -10 -11z"/>
<path d="M10900 7686 c0 -2 7 -9 15 -16 13 -11 14 -10 9 4 -5 14 -24 23 -24
12z"/>
<path d="M11170 6799 c0 -5 5 -7 10 -4 6 3 10 8 10 11 0 2 -4 4 -10 4 -5 0
-10 -5 -10 -11z"/>
<path d="M11480 5750 c0 -5 5 -10 11 -10 5 0 7 5 4 10 -3 6 -8 10 -11 10 -2 0
-4 -4 -4 -10z"/>
<path d="M11607 4965 c-4 -8 -3 -16 1 -19 4 -3 9 4 9 15 2 23 -3 25 -10 4z"/>
<path d="M11610 4900 c0 -5 5 -10 10 -10 6 0 10 5 10 10 0 6 -4 10 -10 10 -5
0 -10 -4 -10 -10z"/>
<path d="M11670 4010 c0 -5 7 -7 15 -4 8 4 15 8 15 10 0 2 -7 4 -15 4 -8 0
-15 -4 -15 -10z"/>
<path d="M11688 3913 c7 -3 16 -2 19 1 4 3 -2 6 -13 5 -11 0 -14 -3 -6 -6z"/>
<path d="M7860 480 c0 -5 5 -10 11 -10 5 0 7 5 4 10 -3 6 -8 10 -11 10 -2 0
-4 -4 -4 -10z"/>
<path d="M6370 465 c0 -9 6 -12 15 -9 8 4 12 10 9 15 -8 14 -24 10 -24 -6z"/>
<path d="M5937 429 c7 -7 15 -10 18 -7 3 3 -2 9 -12 12 -14 6 -15 5 -6 -5z"/>
</g>
</svg>
